# xmcd
#
# Track frame offsets:
#	150
#	27637
#	39328
#	64050
#	90900
#	112853
#	136091
#	151308
#	185620
#
# Disc length: 2833 seconds
#
# Revision: 0
# Processed by: cddbd v1.5.2PL0 Copyright (c) Steve Scherf et al.
# Submitted via: EZCDAudioConverter 2.0.7.1
#
DISCID=680b0f09
DTITLE=Curbside Hustle - 1922
DYEAR=2013
DGENRE=
TTITLE0=Marty Came To Party
TTITLE1=Momma Thinks I'm Crazy
TTITLE2=Harmonix
TTITLE3=Thanksgiving Song
TTITLE4=System
TTITLE5=Spoil Her Blue
TTITLE6=South Mountain
TTITLE7=BP
TTITLE8=Wild Maine
EXTD=
EXTT0=
EXTT1=
EXTT2=
EXTT3=
EXTT4=
EXTT5=
EXTT6=
EXTT7=
EXTT8=
PLAYORDER=
